<svg width="170" height="46" viewBox="0 0 170 46" fill="none" xmlns="http://www.w3.org/2000/svg">
<path fill-rule="evenodd" clip-rule="evenodd" d="M23.1773 18.9454C22.1789 18.8567 1.40815 26.243 1.40576 26.255C1.21276 28.3222 6.79563 34.0346 8.18479 35.4447C14.7541 40.8885 13.1338 41.0084 16.7509 33.5909C17.9066 31.2216 23.3941 19.8304 23.1773 18.9454Z" fill="#6BCD40"/>
<path fill-rule="evenodd" clip-rule="evenodd" d="M0.605359 24.2669C2.54733 24.6746 21.1688 18.2188 22.0814 17.4777C22.222 15.8878 21.6358 15.9309 20.3491 15.5256C17.4231 14.6071 1.62757 9.07462 0.591062 9.29045C-0.452599 10.5375 0.104973 23.5019 0.605359 24.2669Z" fill="#6BCD40"/>
<path fill-rule="evenodd" clip-rule="evenodd" d="M29.1106 43.6775C29.5061 40.7326 26.5038 19.2356 24.7429 20.3435C23.6278 21.0438 17.2562 36.1066 15.7837 39.4376C14.5113 42.2554 27.4522 44.9509 29.1106 43.6775Z" fill="#6BCD40"/>
<path fill-rule="evenodd" clip-rule="evenodd" d="M8.55898 0.441324C8.21109 0.54924 8.4589 0.901768 8.98073 1.379L21.6095 12.7462C22.9939 13.9741 23.9017 15.1204 25.1503 15.9933C26.58 16.9909 26.947 17.8255 28.7245 19.2188C29.1629 19.5642 29.4012 19.9383 29.8325 20.3364C31.0239 21.4347 33.2637 23.2477 34.0834 24.1326C35.9277 25.8377 45.6923 36.7373 46.0664 33.4854C46.1713 32.5885 46.1308 31.989 46.1975 31.1184C46.7026 22.7825 47.1792 15.154 46.7026 6.77723C46.5835 4.71722 46.157 1.26149 43.8433 0.932944C34.4909 -0.35726 8.83538 0.263861 8.55898 0.441324Z" fill="#F3DE1C"/>
<path fill-rule="evenodd" clip-rule="evenodd" d="M28.9511 29.9985L30.0234 39.0539C30.133 40.2889 30.5643 43.6416 31.6914 44.0013C35.7612 45.3011 45.3686 41.1235 46.2073 40.1642C46.2645 37.2193 32.2442 23.9312 28.9202 22.051C26.8734 20.8903 28.7248 29.0536 28.9511 29.9985Z" fill="#6BCD40"/>
<path fill-rule="evenodd" clip-rule="evenodd" d="M6.09753 1.35979C5.25879 0.64035 3.51697 0.944915 2.70444 1.37898C1.77038 1.8754 0.995979 3.27592 0.848246 3.93301C0.185831 6.90911 0.350243 7.51344 0.969768 7.71249C6.58123 9.50151 12.5239 12.1922 18.2664 13.3194C18.574 13.38 18.8871 13.4073 19.2005 13.4009C19.1838 12.432 7.50814 2.55167 6.09753 1.35979Z" fill="#6BCD40"/>
<path fill-rule="evenodd" clip-rule="evenodd" d="M0.989241 31.116C-0.797849 34.5549 13.6752 45.9341 18.9173 44.8046C12.7769 42.9796 1.04166 31.1232 0.989241 31.116Z" fill="#F3DE1C"/>
<path fill-rule="evenodd" clip-rule="evenodd" d="M1.14605 37.6509C-0.831664 43.9988 5.09195 45.7015 9.89803 44.7806C9.70026 44.7543 1.52015 37.7253 1.14605 37.6509Z" fill="#F3DE1C"/>
<path fill-rule="evenodd" clip-rule="evenodd" d="M119.709 13.2282C120.186 12.8853 126.783 1.55884 126.781 1.55404C126.083 0.542026 121.389 0.115155 120.226 0.00244249C115.186 0.0647943 115.875 -0.613882 117.055 4.13205C117.431 5.64768 119.271 12.9093 119.709 13.2282Z" fill="#6BCD40"/>
<path fill-rule="evenodd" clip-rule="evenodd" d="M152.737 33.2599C154.941 33.2599 156.225 31.9673 157.143 29.5644L159.902 22.5426H160.269L161.922 32.152C162.289 34.3679 163.757 35.8475 166.145 35.8475C168.532 35.8475 170 34.3679 170 32.152C169.968 31.035 169.846 29.9225 169.633 28.8258L167.062 13.305C166.657 10.7173 164.858 8.86838 161.739 8.86838C158.984 8.86838 157.295 10.5327 156.23 13.305L152.925 21.9503H152.558L149.253 13.305C148.152 10.5327 146.501 8.87317 143.746 8.87317C140.625 8.87317 138.862 10.7221 138.421 13.3097L135.85 28.8258C135.639 29.9227 135.517 31.0351 135.485 32.152C135.485 34.3679 136.953 35.8475 139.341 35.8475C141.728 35.8475 143.196 34.3679 143.563 32.152L145.214 22.5426H145.588L148.343 29.5644C149.217 31.9673 150.54 33.2599 152.737 33.2599ZM116.573 21.4347V12.9332C116.573 10.7174 115.105 9.23769 112.522 9.23769C109.94 9.23769 108.484 10.7174 108.484 12.9332V32.152C108.484 34.3319 109.951 35.8475 112.522 35.8475C114.727 35.8475 116.011 34.5525 117.665 32.152L123.905 23.6506H124.274V32.152C124.274 34.3679 125.742 35.8475 128.313 35.8475C130.884 35.8475 132.364 34.3679 132.364 32.152V12.9332C132.364 10.7533 130.894 9.23769 128.313 9.23769C126.109 9.23769 124.822 10.5327 123.171 12.9332L116.943 21.4347H116.573ZM89.0353 29.9337H96.7412L97.6586 32.152C98.576 34.3679 100.041 35.8475 102.067 35.8475C104.45 35.8475 106.103 34.1832 106.103 32.152C106.103 31.0417 105.186 28.8258 105.186 28.8258L99.317 13.305C98.2519 10.5327 96.5625 8.86838 92.8835 8.86838C89.2045 8.86838 87.558 10.5327 86.45 13.305L80.5907 28.8258C80.5907 28.8258 79.6733 31.0417 79.6733 32.152C79.6733 34.1832 81.3246 35.8475 83.7098 35.8475C85.7304 35.8475 87.2006 34.3679 88.1179 32.152L89.0353 29.9337ZM90.6866 23.2812L92.7072 17.7463H93.0741L95.0924 23.2884L90.6866 23.2812ZM64.2496 22.1733V17.0005H69.2057V32.152C69.2057 34.3679 70.6759 35.8475 73.2565 35.8475C75.837 35.8475 77.3072 34.3679 77.3072 32.152V13.305C77.3072 11.0867 75.837 9.60941 73.2565 9.60941H60.2107C57.6397 9.60941 56.1719 11.0867 56.1719 13.305V22.1781C56.1719 30.6771 51.0322 28.8306 51.0322 32.5237C51.0322 34.742 52.5 36.2193 54.7041 36.2193C59.4768 36.2121 64.2496 31.4158 64.2496 22.1733Z" fill="#6BCD40"/>
</svg>
