<svg width="170" height="46" fill="none" xmlns="http://www.w3.org/2000/svg"><path fill-rule="evenodd" clip-rule="evenodd" d="M23.177 18.945c-.998-.088-21.769 7.298-21.771 7.31-.193 2.067 5.39 7.78 6.779 9.19 6.57 5.444 4.949 5.563 8.566-1.854 1.156-2.37 6.643-13.76 6.426-14.646zM.605 24.267c1.942.408 20.564-6.048 21.476-6.79.141-1.59-.445-1.546-1.732-1.951C17.423 14.607 1.628 9.075.591 9.29-.453 10.538.105 23.502.605 24.267zM29.11 43.678c.396-2.945-2.606-24.442-4.367-23.334-1.115.7-7.487 15.763-8.96 19.094-1.272 2.817 11.67 5.513 13.328 4.24z" fill="#6BCD40"/><path fill-rule="evenodd" clip-rule="evenodd" d="M8.559.441c-.348.108-.1.46.422.938L21.61 12.746c1.384 1.228 2.292 2.374 3.54 3.247 1.43.998 1.797 1.833 3.575 3.226.438.345.676.72 1.107 1.117 1.192 1.099 3.432 2.912 4.251 3.797 1.845 1.705 11.61 12.604 11.983 9.352.105-.896.065-1.496.131-2.367.506-8.335.982-15.964.506-24.34-.12-2.06-.546-5.517-2.86-5.845C34.491-.357 8.835.263 8.56.44z" fill="#F3DE1C"/><path fill-rule="evenodd" clip-rule="evenodd" d="M28.951 29.998l1.072 9.056c.11 1.235.541 4.588 1.668 4.947 4.07 1.3 13.678-2.877 14.516-3.837.057-2.945-13.963-16.233-17.287-18.113-2.047-1.16-.195 7.003.031 7.948zM6.098 1.36c-.84-.72-2.581-.415-3.394.019C1.77 1.875.996 3.276.848 3.933.186 6.909.35 7.513.97 7.713c5.611 1.789 11.554 4.48 17.296 5.606.308.061.621.088.935.082C19.184 12.432 7.508 2.55 6.098 1.36z" fill="#6BCD40"/><path fill-rule="evenodd" clip-rule="evenodd" d="M.99 31.116c-1.788 3.439 12.685 14.818 17.927 13.689C12.777 42.98 1.042 31.123.99 31.116zm.156 6.534C-.832 44 5.092 45.703 9.898 44.78c-.198-.026-8.378-7.055-8.752-7.13z" fill="#F3DE1C"/><path fill-rule="evenodd" clip-rule="evenodd" d="M119.709 13.228c.477-.343 7.074-11.67 7.072-11.674-.698-1.012-5.392-1.439-6.555-1.552-5.04.063-4.351-.616-3.171 4.13.376 1.516 2.216 8.777 2.654 9.096z" fill="#6BCD40"/><path fill-rule="evenodd" clip-rule="evenodd" d="M152.737 33.26c2.204 0 3.488-1.293 4.406-3.696l2.759-7.021h.367l1.653 9.609c.367 2.216 1.835 3.695 4.223 3.695 2.387 0 3.855-1.48 3.855-3.695a20.529 20.529 0 00-.367-3.326l-2.571-15.521c-.405-2.588-2.204-4.437-5.323-4.437-2.755 0-4.444 1.665-5.509 4.437l-3.305 8.645h-.367l-3.305-8.645c-1.101-2.772-2.752-4.432-5.507-4.432-3.121 0-4.884 1.85-5.325 4.437l-2.571 15.516a20.756 20.756 0 00-.365 3.326c0 2.216 1.468 3.695 3.856 3.695 2.387 0 3.855-1.48 4.222-3.695l1.651-9.61h.374l2.755 7.022c.874 2.403 2.197 3.696 4.394 3.696zm-36.164-11.825v-8.502c0-2.216-1.468-3.695-4.051-3.695-2.582 0-4.038 1.48-4.038 3.695v19.219c0 2.18 1.467 3.695 4.038 3.695 2.205 0 3.489-1.294 5.143-3.695l6.24-8.501h.369v8.501c0 2.216 1.468 3.695 4.039 3.695 2.571 0 4.051-1.48 4.051-3.695V12.933c0-2.18-1.47-3.695-4.051-3.695-2.204 0-3.491 1.295-5.142 3.695l-6.228 8.502h-.37zm-27.538 8.499h7.706l.918 2.218c.917 2.216 2.382 3.695 4.408 3.695 2.383 0 4.036-1.664 4.036-3.695 0-1.11-.917-3.326-.917-3.326l-5.869-15.521c-1.065-2.772-2.754-4.437-6.433-4.437-3.68 0-5.326 1.665-6.434 4.437l-5.86 15.52s-.917 2.217-.917 3.327c0 2.031 1.652 3.695 4.037 3.695 2.02 0 3.49-1.48 4.408-3.695l.917-2.218zm1.652-6.653l2.02-5.535h.367l2.018 5.542-4.405-.007zM64.25 22.173v-5.172h4.956v15.151c0 2.216 1.47 3.695 4.05 3.695 2.581 0 4.051-1.48 4.051-3.695V13.305c0-2.218-1.47-3.696-4.05-3.696H60.21c-2.571 0-4.04 1.478-4.04 3.696v8.873c0 8.5-5.139 6.653-5.139 10.346 0 2.218 1.468 3.695 3.672 3.695 4.773-.007 9.546-4.803 9.546-14.046z" fill="#6BCD40"/></svg>